<mxfile host="app.diagrams.net" agent="Mozilla/5.0 (Windows NT 10.0; Win64; x64) AppleWebKit/537.36 (KHTML, like Gecko) Chrome/133.0.0.0 Safari/537.36" version="26.0.15">
  <diagram id="R2lEEEUBdFMjLlhIrx00" name="Page-1">
    <mxGraphModel dx="7159" dy="3779" grid="0" gridSize="10" guides="1" tooltips="1" connect="1" arrows="1" fold="1" page="1" pageScale="1" pageWidth="1654" pageHeight="1169" math="0" shadow="0" extFonts="Permanent Marker^https://fonts.googleapis.com/css?family=Permanent+Marker">
      <root>
        <mxCell id="0" />
        <mxCell id="1" parent="0" />
        <mxCell id="7bwA_UZl1lktJwLHYLpA-2" value="" style="rounded=0;whiteSpace=wrap;html=1;" parent="1" vertex="1">
          <mxGeometry x="-794" y="-324" width="990" height="50" as="geometry" />
        </mxCell>
        <mxCell id="7bwA_UZl1lktJwLHYLpA-15" value="&lt;div&gt;&lt;u style=&quot;font-size: 20px; font-weight: 700;&quot;&gt;Customer_ID&lt;/u&gt;&lt;/div&gt;" style="rounded=0;html=1;strokeColor=default;align=center;verticalAlign=middle;fontFamily=Helvetica;fontSize=12;fontStyle=4;fillColor=#ffe6cc;whiteSpace=wrap;" parent="1" vertex="1">
          <mxGeometry x="-795" y="-324" width="200" height="50" as="geometry" />
        </mxCell>
        <mxCell id="7bwA_UZl1lktJwLHYLpA-122" value="&lt;br&gt;&lt;span style=&quot;forced-color-adjust: none; color: rgb(0, 0, 0); font-family: Helvetica; font-size: 20px; font-style: normal; font-variant-ligatures: normal; font-variant-caps: normal; font-weight: 700; letter-spacing: normal; orphans: 2; text-align: center; text-indent: 0px; text-transform: none; widows: 2; word-spacing: 0px; -webkit-text-stroke-width: 0px; white-space: normal; background-color: rgb(251, 251, 251);&quot;&gt;C_First_Name&lt;/span&gt;&lt;div&gt;&lt;br&gt;&lt;/div&gt;" style="rounded=0;html=1;strokeColor=default;align=center;verticalAlign=middle;fontFamily=Helvetica;fontSize=12;fontColor=default;fontStyle=0;fillColor=default;whiteSpace=wrap;" parent="1" vertex="1">
          <mxGeometry x="-594" y="-324" width="200" height="50" as="geometry" />
        </mxCell>
        <mxCell id="7bwA_UZl1lktJwLHYLpA-123" value="" style="rounded=0;whiteSpace=wrap;html=1;" parent="1" vertex="1">
          <mxGeometry x="-795" y="6" width="1000" height="50" as="geometry" />
        </mxCell>
        <mxCell id="7bwA_UZl1lktJwLHYLpA-124" value="&lt;br&gt;&lt;span style=&quot;forced-color-adjust: none; color: rgb(0, 0, 0); font-family: Helvetica; font-style: normal; font-variant-ligatures: normal; font-variant-caps: normal; letter-spacing: normal; orphans: 2; text-align: center; text-indent: 0px; text-transform: none; widows: 2; word-spacing: 0px; -webkit-text-stroke-width: 0px; white-space: normal; text-decoration-thickness: initial; text-decoration-style: initial; text-decoration-color: initial; font-size: 20px; font-weight: 700; background-color: rgb(251, 251, 251);&quot;&gt;C_Last_Name&lt;/span&gt;&lt;div&gt;&lt;br/&gt;&lt;/div&gt;" style="rounded=0;html=1;strokeColor=default;align=center;verticalAlign=middle;fontFamily=Helvetica;fontSize=12;fontColor=default;fontStyle=0;fillColor=default;whiteSpace=wrap;" parent="1" vertex="1">
          <mxGeometry x="-395" y="-324" width="200" height="50" as="geometry" />
        </mxCell>
        <mxCell id="7bwA_UZl1lktJwLHYLpA-125" value="&lt;span style=&quot;font-size: 20px; font-weight: 700;&quot;&gt;Customer_Phone&lt;/span&gt;" style="rounded=0;html=1;strokeColor=default;align=center;verticalAlign=middle;fontFamily=Helvetica;fontSize=12;fontColor=default;fontStyle=0;fillColor=default;whiteSpace=wrap;" parent="1" vertex="1">
          <mxGeometry x="-204" y="-324" width="200" height="50" as="geometry" />
        </mxCell>
        <mxCell id="7bwA_UZl1lktJwLHYLpA-126" value="&lt;span style=&quot;font-size: 20px; font-weight: 700;&quot;&gt;User_ID&lt;/span&gt;" style="rounded=0;html=1;strokeColor=default;align=center;verticalAlign=middle;fontFamily=Helvetica;fontSize=12;fontStyle=0;fillColor=#e1d5e7;whiteSpace=wrap;" parent="1" vertex="1">
          <mxGeometry x="-4" y="-324" width="200" height="50" as="geometry" />
        </mxCell>
        <mxCell id="7bwA_UZl1lktJwLHYLpA-127" value="&lt;span style=&quot;font-size: 20px; font-weight: 700;&quot;&gt;Admin_ID&lt;/span&gt;" style="rounded=0;html=1;strokeColor=default;align=center;verticalAlign=middle;fontFamily=Helvetica;fontSize=12;fontStyle=4;fillColor=#ffe6cc;whiteSpace=wrap;" parent="1" vertex="1">
          <mxGeometry x="-795" y="6" width="200" height="50" as="geometry" />
        </mxCell>
        <mxCell id="7bwA_UZl1lktJwLHYLpA-128" value="&lt;span style=&quot;font-size: 20px; font-weight: 700;&quot;&gt;A_First_Name&lt;/span&gt;" style="rounded=0;html=1;strokeColor=default;align=center;verticalAlign=middle;fontFamily=Helvetica;fontSize=12;fontColor=default;fontStyle=0;fillColor=default;whiteSpace=wrap;" parent="1" vertex="1">
          <mxGeometry x="-595" y="6" width="200" height="50" as="geometry" />
        </mxCell>
        <mxCell id="7bwA_UZl1lktJwLHYLpA-132" value="&lt;div&gt;&lt;span style=&quot;background-color: light-dark(rgb(251, 251, 251), rgb(21, 21, 21)); color: light-dark(rgb(0, 0, 0), rgb(237, 237, 237)); font-size: 20px; font-weight: 700;&quot;&gt;A_Last_Name&lt;/span&gt;&lt;/div&gt;" style="rounded=0;html=1;strokeColor=default;align=center;verticalAlign=middle;fontFamily=Helvetica;fontSize=12;fontColor=default;fontStyle=0;fillColor=default;whiteSpace=wrap;" parent="1" vertex="1">
          <mxGeometry x="-396" y="6" width="200" height="50" as="geometry" />
        </mxCell>
        <mxCell id="7bwA_UZl1lktJwLHYLpA-133" value="&lt;span style=&quot;font-size: 20px; font-weight: 700;&quot;&gt;Image&lt;/span&gt;" style="rounded=0;html=1;strokeColor=default;align=center;verticalAlign=middle;fontFamily=Helvetica;fontSize=12;fontColor=default;fontStyle=0;fillColor=default;whiteSpace=wrap;" parent="1" vertex="1">
          <mxGeometry x="-196" y="6" width="200" height="50" as="geometry" />
        </mxCell>
        <mxCell id="7bwA_UZl1lktJwLHYLpA-134" value="&lt;span style=&quot;font-size: 20px; font-weight: 700;&quot;&gt;User_ID&lt;/span&gt;" style="rounded=0;html=1;align=center;verticalAlign=middle;fontFamily=Helvetica;fontSize=12;fontStyle=0;whiteSpace=wrap;fillColor=#e1d5e7;strokeColor=default;" parent="1" vertex="1">
          <mxGeometry x="4" y="6" width="200" height="50" as="geometry" />
        </mxCell>
        <mxCell id="7bwA_UZl1lktJwLHYLpA-135" value="" style="rounded=0;whiteSpace=wrap;html=1;" parent="1" vertex="1">
          <mxGeometry x="-792" y="-488" width="800" height="50" as="geometry" />
        </mxCell>
        <mxCell id="7bwA_UZl1lktJwLHYLpA-136" value="&lt;u style=&quot;font-size: 20px; font-weight: 700;&quot;&gt;User_ID&lt;/u&gt;" style="rounded=0;html=1;strokeColor=default;align=center;verticalAlign=middle;fontFamily=Helvetica;fontSize=12;fontStyle=4;fillColor=#ffe6cc;whiteSpace=wrap;" parent="1" vertex="1">
          <mxGeometry x="-792" y="-488" width="200" height="50" as="geometry" />
        </mxCell>
        <mxCell id="7bwA_UZl1lktJwLHYLpA-138" value="&lt;span style=&quot;font-size: 20px; font-weight: 700;&quot;&gt;Email&lt;/span&gt;" style="rounded=0;html=1;strokeColor=default;align=center;verticalAlign=middle;fontFamily=Helvetica;fontSize=12;fontColor=default;fontStyle=0;fillColor=default;whiteSpace=wrap;" parent="1" vertex="1">
          <mxGeometry x="-592" y="-488" width="200" height="50" as="geometry" />
        </mxCell>
        <mxCell id="7bwA_UZl1lktJwLHYLpA-139" value="&lt;span style=&quot;font-size: 20px; font-weight: 700;&quot;&gt;User_Type&lt;/span&gt;" style="rounded=0;html=1;strokeColor=default;align=center;verticalAlign=middle;fontFamily=Helvetica;fontSize=12;fontColor=default;fontStyle=0;fillColor=default;whiteSpace=wrap;" parent="1" vertex="1">
          <mxGeometry x="-392" y="-488" width="200" height="50" as="geometry" />
        </mxCell>
        <mxCell id="7bwA_UZl1lktJwLHYLpA-140" value="&lt;span style=&quot;font-size: 20px; font-weight: 700;&quot;&gt;Password&lt;/span&gt;" style="rounded=0;html=1;strokeColor=default;align=center;verticalAlign=middle;fontFamily=Helvetica;fontSize=12;fontColor=default;fontStyle=0;fillColor=default;whiteSpace=wrap;" parent="1" vertex="1">
          <mxGeometry x="-192" y="-488" width="200" height="50" as="geometry" />
        </mxCell>
        <mxCell id="7bwA_UZl1lktJwLHYLpA-141" value="" style="rounded=0;whiteSpace=wrap;html=1;" parent="1" vertex="1">
          <mxGeometry x="-792.5" y="352.5" width="1400" height="50" as="geometry" />
        </mxCell>
        <mxCell id="7bwA_UZl1lktJwLHYLpA-142" value="" style="rounded=0;whiteSpace=wrap;html=1;" parent="1" vertex="1">
          <mxGeometry x="-794" y="516" width="600" height="50" as="geometry" />
        </mxCell>
        <mxCell id="7bwA_UZl1lktJwLHYLpA-143" value="&lt;span style=&quot;font-size: 20px; font-weight: 700;&quot;&gt;User_ID&lt;/span&gt;" style="rounded=0;html=1;align=center;verticalAlign=middle;fontFamily=Helvetica;fontSize=12;fontStyle=0;whiteSpace=wrap;fillColor=#e1d5e7;strokeColor=default;" parent="1" vertex="1">
          <mxGeometry x="408.5" y="352.5" width="200" height="50" as="geometry" />
        </mxCell>
        <mxCell id="7bwA_UZl1lktJwLHYLpA-144" value="&lt;u style=&quot;font-size: 20px; font-weight: 700;&quot;&gt;Rider_ID&lt;/u&gt;&lt;span style=&quot;background-color: light-dark(#ffffff, var(--ge-dark-color, #121212));&quot;&gt;&lt;/span&gt;" style="rounded=0;html=1;strokeColor=default;align=center;verticalAlign=middle;fontFamily=Helvetica;fontSize=12;fontStyle=4;fillColor=#ffe6cc;whiteSpace=wrap;" parent="1" vertex="1">
          <mxGeometry x="-792.5" y="352.5" width="200" height="50" as="geometry" />
        </mxCell>
        <mxCell id="7bwA_UZl1lktJwLHYLpA-145" value="&lt;span style=&quot;font-size: 20px; font-weight: 700;&quot;&gt;R_First_Name&lt;/span&gt;" style="rounded=0;html=1;strokeColor=default;align=center;verticalAlign=middle;fontFamily=Helvetica;fontSize=12;fontColor=default;fontStyle=0;fillColor=default;whiteSpace=wrap;" parent="1" vertex="1">
          <mxGeometry x="-592.5" y="352.5" width="200" height="50" as="geometry" />
        </mxCell>
        <mxCell id="7bwA_UZl1lktJwLHYLpA-146" value="&lt;span style=&quot;font-size: 20px; font-weight: 700;&quot;&gt;R_Last_Name&lt;/span&gt;" style="rounded=0;html=1;strokeColor=default;align=center;verticalAlign=middle;fontFamily=Helvetica;fontSize=12;fontColor=default;fontStyle=0;fillColor=default;whiteSpace=wrap;" parent="1" vertex="1">
          <mxGeometry x="-392.5" y="352.5" width="200" height="50" as="geometry" />
        </mxCell>
        <mxCell id="7bwA_UZl1lktJwLHYLpA-147" value="&lt;span style=&quot;font-size: 20px; font-weight: 700;&quot;&gt;Rider_Phone&lt;/span&gt;" style="rounded=0;html=1;strokeColor=default;align=center;verticalAlign=middle;fontFamily=Helvetica;fontSize=12;fontColor=default;fontStyle=0;fillColor=default;whiteSpace=wrap;" parent="1" vertex="1">
          <mxGeometry x="-193.5" y="352.5" width="200" height="50" as="geometry" />
        </mxCell>
        <mxCell id="7bwA_UZl1lktJwLHYLpA-148" value="&lt;span style=&quot;font-size: 20px; font-weight: 700;&quot;&gt;City_Corporation&lt;/span&gt;" style="rounded=0;html=1;strokeColor=default;align=center;verticalAlign=middle;fontFamily=Helvetica;fontSize=12;fontColor=default;fontStyle=0;fillColor=default;whiteSpace=wrap;" parent="1" vertex="1">
          <mxGeometry x="-594" y="516" width="200" height="50" as="geometry" />
        </mxCell>
        <mxCell id="7bwA_UZl1lktJwLHYLpA-151" value="" style="rounded=0;whiteSpace=wrap;html=1;" parent="1" vertex="1">
          <mxGeometry x="-792" y="179" width="1200" height="50" as="geometry" />
        </mxCell>
        <mxCell id="7bwA_UZl1lktJwLHYLpA-153" value="&lt;span style=&quot;font-size: 20px; font-weight: 700;&quot;&gt;Product_ID&lt;/span&gt;" style="rounded=0;html=1;align=center;verticalAlign=middle;fontFamily=Helvetica;fontSize=12;fontStyle=0;whiteSpace=wrap;fillColor=#e1d5e7;strokeColor=default;" parent="1" vertex="1">
          <mxGeometry x="8" y="179" width="200" height="50" as="geometry" />
        </mxCell>
        <mxCell id="7bwA_UZl1lktJwLHYLpA-155" value="&lt;span style=&quot;font-size: 20px; font-weight: 700;&quot;&gt;Active_status&lt;/span&gt;" style="rounded=0;html=1;strokeColor=default;align=center;verticalAlign=middle;fontFamily=Helvetica;fontSize=12;fontColor=default;fontStyle=0;fillColor=default;whiteSpace=wrap;" parent="1" vertex="1">
          <mxGeometry x="7.5" y="352.5" width="200" height="50" as="geometry" />
        </mxCell>
        <mxCell id="7bwA_UZl1lktJwLHYLpA-156" value="&lt;span style=&quot;font-size: 20px; font-weight: 700;&quot;&gt;Max_Delivery&lt;/span&gt;" style="rounded=0;html=1;strokeColor=default;align=center;verticalAlign=middle;fontFamily=Helvetica;fontSize=12;fontColor=default;fontStyle=0;fillColor=default;whiteSpace=wrap;" parent="1" vertex="1">
          <mxGeometry x="207.5" y="352.5" width="200" height="50" as="geometry" />
        </mxCell>
        <mxCell id="7bwA_UZl1lktJwLHYLpA-157" value="&lt;span style=&quot;font-size: 20px; font-weight: 700;&quot;&gt;Upazila&lt;/span&gt;" style="rounded=0;html=1;strokeColor=default;align=center;verticalAlign=middle;fontFamily=Helvetica;fontSize=12;fontColor=default;fontStyle=0;fillColor=default;whiteSpace=wrap;" parent="1" vertex="1">
          <mxGeometry x="-394" y="516" width="200" height="50" as="geometry" />
        </mxCell>
        <mxCell id="7bwA_UZl1lktJwLHYLpA-158" value="" style="rounded=0;whiteSpace=wrap;html=1;" parent="1" vertex="1">
          <mxGeometry x="-795" y="-147" width="1200" height="50" as="geometry" />
        </mxCell>
        <mxCell id="7bwA_UZl1lktJwLHYLpA-159" value="" style="rounded=0;whiteSpace=wrap;html=1;" parent="1" vertex="1">
          <mxGeometry x="745" y="107" width="1800" height="50" as="geometry" />
        </mxCell>
        <mxCell id="7bwA_UZl1lktJwLHYLpA-160" value="" style="rounded=0;whiteSpace=wrap;html=1;" parent="1" vertex="1">
          <mxGeometry x="746" y="-193" width="800" height="50" as="geometry" />
        </mxCell>
        <mxCell id="7bwA_UZl1lktJwLHYLpA-161" value="&lt;span style=&quot;font-size: 20px; font-weight: 700;&quot;&gt;Audit_ID&lt;/span&gt;" style="rounded=0;html=1;strokeColor=default;align=center;verticalAlign=middle;fontFamily=Helvetica;fontSize=12;fontStyle=4;fillColor=#ffe6cc;whiteSpace=wrap;" parent="1" vertex="1">
          <mxGeometry x="-792" y="179" width="200" height="50" as="geometry" />
        </mxCell>
        <mxCell id="7bwA_UZl1lktJwLHYLpA-162" value="&lt;span style=&quot;font-size: 20px; font-weight: 700;&quot;&gt;Change_Type&lt;/span&gt;" style="rounded=0;html=1;strokeColor=default;align=center;verticalAlign=middle;fontFamily=Helvetica;fontSize=12;fontColor=default;fontStyle=0;fillColor=default;whiteSpace=wrap;" parent="1" vertex="1">
          <mxGeometry x="-592" y="179" width="200" height="50" as="geometry" />
        </mxCell>
        <mxCell id="7bwA_UZl1lktJwLHYLpA-163" value="&lt;span style=&quot;font-size: 20px; font-weight: 700;&quot;&gt;Change_Details&lt;/span&gt;" style="rounded=0;html=1;strokeColor=default;align=center;verticalAlign=middle;fontFamily=Helvetica;fontSize=12;fontColor=default;fontStyle=0;fillColor=default;whiteSpace=wrap;" parent="1" vertex="1">
          <mxGeometry x="-392" y="179" width="200" height="50" as="geometry" />
        </mxCell>
        <mxCell id="7bwA_UZl1lktJwLHYLpA-164" value="&lt;span style=&quot;font-size: 20px; font-weight: 700;&quot;&gt;Admin_ID&lt;/span&gt;" style="rounded=0;html=1;align=center;verticalAlign=middle;fontFamily=Helvetica;fontSize=12;fontStyle=0;whiteSpace=wrap;fillColor=#e1d5e7;strokeColor=default;" parent="1" vertex="1">
          <mxGeometry x="208" y="179" width="200" height="50" as="geometry" />
        </mxCell>
        <mxCell id="7bwA_UZl1lktJwLHYLpA-167" value="&lt;span style=&quot;font-size: 20px; font-weight: 700;&quot;&gt;Time_Stamp&lt;/span&gt;" style="rounded=0;html=1;strokeColor=default;align=center;verticalAlign=middle;fontFamily=Helvetica;fontSize=12;fontColor=default;fontStyle=0;fillColor=default;whiteSpace=wrap;" parent="1" vertex="1">
          <mxGeometry x="-192" y="179" width="200" height="50" as="geometry" />
        </mxCell>
        <mxCell id="7bwA_UZl1lktJwLHYLpA-168" value="&lt;u style=&quot;font-size: 20px; font-weight: 700;&quot;&gt;Address_ID&lt;/u&gt;" style="rounded=0;html=1;strokeColor=default;align=center;verticalAlign=middle;fontFamily=Helvetica;fontSize=12;fontStyle=4;fillColor=#ffe6cc;whiteSpace=wrap;" parent="1" vertex="1">
          <mxGeometry x="-795" y="-147" width="200" height="50" as="geometry" />
        </mxCell>
        <mxCell id="7bwA_UZl1lktJwLHYLpA-169" value="&lt;span style=&quot;font-size: 20px; font-weight: 700;&quot;&gt;Full_Address&lt;/span&gt;" style="rounded=0;html=1;strokeColor=default;align=center;verticalAlign=middle;fontFamily=Helvetica;fontSize=12;fontColor=default;fontStyle=0;fillColor=default;whiteSpace=wrap;" parent="1" vertex="1">
          <mxGeometry x="-595" y="-147" width="200" height="50" as="geometry" />
        </mxCell>
        <mxCell id="7bwA_UZl1lktJwLHYLpA-170" value="&lt;span style=&quot;font-size: 20px; font-weight: 700;&quot;&gt;Gift_Amount&lt;/span&gt;" style="rounded=0;html=1;strokeColor=default;align=center;verticalAlign=middle;fontFamily=Helvetica;fontSize=12;fontColor=default;fontStyle=0;fillColor=default;whiteSpace=wrap;" parent="1" vertex="1">
          <mxGeometry x="945" y="107" width="200" height="50" as="geometry" />
        </mxCell>
        <mxCell id="7bwA_UZl1lktJwLHYLpA-171" value="&lt;span style=&quot;font-size: 20px; font-weight: 700;&quot;&gt;Gift_Card_ID&lt;/span&gt;" style="rounded=0;html=1;strokeColor=default;align=center;verticalAlign=middle;fontFamily=Helvetica;fontSize=12;fontStyle=4;fillColor=#ffe6cc;whiteSpace=wrap;" parent="1" vertex="1">
          <mxGeometry x="745" y="107" width="200" height="50" as="geometry" />
        </mxCell>
        <mxCell id="7bwA_UZl1lktJwLHYLpA-172" value="&lt;span style=&quot;font-size: 20px; font-weight: 700;&quot;&gt;Customer_ID&lt;/span&gt;" style="rounded=0;html=1;align=center;verticalAlign=middle;fontFamily=Helvetica;fontSize=12;fontStyle=0;whiteSpace=wrap;fillColor=#e1d5e7;strokeColor=default;" parent="1" vertex="1">
          <mxGeometry x="205" y="-147" width="200" height="50" as="geometry" />
        </mxCell>
        <mxCell id="7bwA_UZl1lktJwLHYLpA-173" value="&lt;span style=&quot;font-size: 20px; font-weight: 700;&quot;&gt;Payment_ID&lt;/span&gt;" style="rounded=0;html=1;align=center;verticalAlign=middle;fontFamily=Helvetica;fontSize=12;fontStyle=0;whiteSpace=wrap;fillColor=#e1d5e7;strokeColor=default;" parent="1" vertex="1">
          <mxGeometry x="2345" y="107" width="200" height="50" as="geometry" />
        </mxCell>
        <mxCell id="7bwA_UZl1lktJwLHYLpA-174" value="&lt;span style=&quot;font-size: 20px; font-weight: 700;&quot;&gt;User_ID&lt;/span&gt;" style="rounded=0;html=1;align=center;verticalAlign=middle;fontFamily=Helvetica;fontSize=12;fontStyle=0;whiteSpace=wrap;fillColor=#e1d5e7;strokeColor=default;" parent="1" vertex="1">
          <mxGeometry x="1546" y="666" width="200" height="50" as="geometry" />
        </mxCell>
        <mxCell id="7bwA_UZl1lktJwLHYLpA-179" value="&lt;span style=&quot;font-size: 20px; font-weight: 700;&quot;&gt;City_corporation&lt;/span&gt;" style="rounded=0;html=1;strokeColor=default;align=center;verticalAlign=middle;fontFamily=Helvetica;fontSize=12;fontColor=default;fontStyle=0;fillColor=default;whiteSpace=wrap;" parent="1" vertex="1">
          <mxGeometry x="-395" y="-147" width="200" height="50" as="geometry" />
        </mxCell>
        <mxCell id="7bwA_UZl1lktJwLHYLpA-180" value="&lt;span style=&quot;font-size: 20px; font-weight: 700;&quot;&gt;Sender_ID&lt;/span&gt;" style="rounded=0;html=1;strokeColor=default;align=center;verticalAlign=middle;fontFamily=Helvetica;fontSize=12;fontColor=default;fontStyle=0;fillColor=default;whiteSpace=wrap;" parent="1" vertex="1">
          <mxGeometry x="1145" y="107" width="200" height="50" as="geometry" />
        </mxCell>
        <mxCell id="7bwA_UZl1lktJwLHYLpA-181" value="&lt;span style=&quot;font-size: 20px; font-weight: 700;&quot;&gt;Upazila&lt;/span&gt;" style="rounded=0;html=1;strokeColor=default;align=center;verticalAlign=middle;fontFamily=Helvetica;fontSize=12;fontColor=default;fontStyle=0;fillColor=default;whiteSpace=wrap;" parent="1" vertex="1">
          <mxGeometry x="-195" y="-147" width="200" height="50" as="geometry" />
        </mxCell>
        <mxCell id="7bwA_UZl1lktJwLHYLpA-182" value="&lt;span style=&quot;font-size: 20px; font-weight: 700;&quot;&gt;Personal_Note&lt;/span&gt;" style="rounded=0;html=1;strokeColor=default;align=center;verticalAlign=middle;fontFamily=Helvetica;fontSize=12;fontColor=default;fontStyle=0;fillColor=default;whiteSpace=wrap;" parent="1" vertex="1">
          <mxGeometry x="1345" y="107" width="200" height="50" as="geometry" />
        </mxCell>
        <mxCell id="7bwA_UZl1lktJwLHYLpA-185" value="&lt;span style=&quot;font-size: 20px; font-weight: 700;&quot;&gt;Postal_Code&lt;/span&gt;" style="rounded=0;html=1;strokeColor=default;align=center;verticalAlign=middle;fontFamily=Helvetica;fontSize=12;fontColor=default;fontStyle=0;fillColor=default;whiteSpace=wrap;" parent="1" vertex="1">
          <mxGeometry x="5" y="-147" width="197" height="50" as="geometry" />
        </mxCell>
        <mxCell id="7bwA_UZl1lktJwLHYLpA-186" value="" style="rounded=0;whiteSpace=wrap;html=1;" parent="1" vertex="1">
          <mxGeometry x="746" y="666" width="1470" height="50" as="geometry" />
        </mxCell>
        <mxCell id="7bwA_UZl1lktJwLHYLpA-187" value="" style="rounded=0;whiteSpace=wrap;html=1;" parent="1" vertex="1">
          <mxGeometry x="745" y="-343" width="400" height="50" as="geometry" />
        </mxCell>
        <mxCell id="7bwA_UZl1lktJwLHYLpA-188" value="" style="rounded=0;whiteSpace=wrap;html=1;" parent="1" vertex="1">
          <mxGeometry x="-797" y="672" width="1400" height="50" as="geometry" />
        </mxCell>
        <mxCell id="7bwA_UZl1lktJwLHYLpA-189" value="&lt;u style=&quot;font-size: 20px; font-weight: 700;&quot;&gt;Delivery_ID&lt;/u&gt;" style="rounded=0;html=1;strokeColor=default;align=center;verticalAlign=middle;fontFamily=Helvetica;fontSize=12;fontStyle=4;fillColor=#ffe6cc;whiteSpace=wrap;" parent="1" vertex="1">
          <mxGeometry x="746" y="666" width="190" height="50" as="geometry" />
        </mxCell>
        <mxCell id="7bwA_UZl1lktJwLHYLpA-190" value="&lt;span style=&quot;font-size: 20px; font-weight: 700;&quot;&gt;Actual_Delivery_date&lt;/span&gt;" style="rounded=0;html=1;strokeColor=default;align=center;verticalAlign=middle;fontFamily=Helvetica;fontSize=12;fontColor=default;fontStyle=0;fillColor=default;whiteSpace=wrap;" parent="1" vertex="1">
          <mxGeometry x="936" y="666" width="210" height="50" as="geometry" />
        </mxCell>
        <mxCell id="7bwA_UZl1lktJwLHYLpA-191" value="&lt;span style=&quot;font-size: 20px; font-weight: 700;&quot;&gt;Order_Date&lt;/span&gt;" style="rounded=0;html=1;strokeColor=default;align=center;verticalAlign=middle;fontFamily=Helvetica;fontSize=12;fontColor=default;fontStyle=0;fillColor=default;whiteSpace=wrap;" parent="1" vertex="1">
          <mxGeometry x="-597" y="672" width="200" height="50" as="geometry" />
        </mxCell>
        <mxCell id="7bwA_UZl1lktJwLHYLpA-192" value="&lt;u style=&quot;font-size: 20px; font-weight: 700;&quot;&gt;Category_ID&lt;/u&gt;" style="rounded=0;html=1;strokeColor=default;align=center;verticalAlign=middle;fontFamily=Helvetica;fontSize=12;fontStyle=4;fillColor=#ffe6cc;whiteSpace=wrap;" parent="1" vertex="1">
          <mxGeometry x="745" y="-343" width="200" height="50" as="geometry" />
        </mxCell>
        <mxCell id="7bwA_UZl1lktJwLHYLpA-193" value="&lt;span style=&quot;font-size: 20px; font-weight: 700;&quot;&gt;Order_ID&lt;/span&gt;" style="rounded=0;html=1;align=center;verticalAlign=middle;fontFamily=Helvetica;fontSize=12;fontStyle=0;whiteSpace=wrap;fillColor=#e1d5e7;strokeColor=default;" parent="1" vertex="1">
          <mxGeometry x="2016" y="666" width="200" height="50" as="geometry" />
        </mxCell>
        <mxCell id="7bwA_UZl1lktJwLHYLpA-194" value="&lt;span style=&quot;font-size: 20px; font-weight: 700;&quot;&gt;User_ID&lt;/span&gt;" style="rounded=0;html=1;align=center;verticalAlign=middle;fontFamily=Helvetica;fontSize=12;fontStyle=0;whiteSpace=wrap;fillColor=#e1d5e7;strokeColor=default;" parent="1" vertex="1">
          <mxGeometry x="203" y="672" width="200" height="50" as="geometry" />
        </mxCell>
        <mxCell id="7bwA_UZl1lktJwLHYLpA-195" value="&lt;span style=&quot;font-size: 20px; font-weight: 700;&quot;&gt;Payment_ID&lt;/span&gt;" style="rounded=0;html=1;align=center;verticalAlign=middle;fontFamily=Helvetica;fontSize=12;fontStyle=0;whiteSpace=wrap;fillColor=#e1d5e7;strokeColor=default;" parent="1" vertex="1">
          <mxGeometry x="403" y="672" width="200" height="50" as="geometry" />
        </mxCell>
        <mxCell id="7bwA_UZl1lktJwLHYLpA-196" value="&lt;span style=&quot;font-size: 20px; font-weight: 700;&quot;&gt;Estimated_Delivery_Date&lt;/span&gt;" style="rounded=0;html=1;strokeColor=default;align=center;verticalAlign=middle;fontFamily=Helvetica;fontSize=12;fontColor=default;fontStyle=0;fillColor=default;whiteSpace=wrap;" parent="1" vertex="1">
          <mxGeometry x="1146" y="666" width="270" height="50" as="geometry" />
        </mxCell>
        <mxCell id="7bwA_UZl1lktJwLHYLpA-197" value="&lt;span style=&quot;font-size: 20px; font-weight: 700;&quot;&gt;Category_Name&lt;/span&gt;" style="rounded=0;html=1;strokeColor=default;align=center;verticalAlign=middle;fontFamily=Helvetica;fontSize=12;fontColor=default;fontStyle=0;fillColor=default;whiteSpace=wrap;" parent="1" vertex="1">
          <mxGeometry x="945" y="-343" width="200" height="50" as="geometry" />
        </mxCell>
        <mxCell id="7bwA_UZl1lktJwLHYLpA-198" value="&lt;span style=&quot;font-size: 20px; font-weight: 700;&quot;&gt;Tracking_Number&lt;/span&gt;" style="rounded=0;html=1;strokeColor=default;align=center;verticalAlign=middle;fontFamily=Helvetica;fontSize=12;fontColor=default;fontStyle=0;fillColor=default;whiteSpace=wrap;" parent="1" vertex="1">
          <mxGeometry x="1616" y="666" width="200" height="50" as="geometry" />
        </mxCell>
        <mxCell id="7bwA_UZl1lktJwLHYLpA-199" value="&lt;span style=&quot;font-size: 20px; font-weight: 700;&quot;&gt;Total_Amount&lt;/span&gt;" style="rounded=0;html=1;strokeColor=default;align=center;verticalAlign=middle;fontFamily=Helvetica;fontSize=12;fontColor=default;fontStyle=0;fillColor=default;whiteSpace=wrap;" parent="1" vertex="1">
          <mxGeometry x="-397" y="672" width="200" height="50" as="geometry" />
        </mxCell>
        <mxCell id="7bwA_UZl1lktJwLHYLpA-200" value="&lt;span style=&quot;font-size: 20px; font-weight: 700;&quot;&gt;Delivery_Status&lt;/span&gt;" style="rounded=0;html=1;strokeColor=default;align=center;verticalAlign=middle;fontFamily=Helvetica;fontSize=12;fontColor=default;fontStyle=0;fillColor=default;whiteSpace=wrap;" parent="1" vertex="1">
          <mxGeometry x="1416" y="666" width="200" height="50" as="geometry" />
        </mxCell>
        <mxCell id="7bwA_UZl1lktJwLHYLpA-201" value="&lt;span style=&quot;font-size: 20px; font-weight: 700;&quot;&gt;Recipient_Email&lt;/span&gt;" style="rounded=0;html=1;strokeColor=default;align=center;verticalAlign=middle;fontFamily=Helvetica;fontSize=12;fontColor=default;fontStyle=0;fillColor=default;whiteSpace=wrap;" parent="1" vertex="1">
          <mxGeometry x="1545" y="107" width="200" height="50" as="geometry" />
        </mxCell>
        <mxCell id="7bwA_UZl1lktJwLHYLpA-202" value="&lt;span style=&quot;font-size: 20px; font-weight: 700;&quot;&gt;Expiration_Date&lt;/span&gt;" style="rounded=0;html=1;strokeColor=default;align=center;verticalAlign=middle;fontFamily=Helvetica;fontSize=12;fontColor=default;fontStyle=0;fillColor=default;whiteSpace=wrap;" parent="1" vertex="1">
          <mxGeometry x="1745" y="107" width="200" height="50" as="geometry" />
        </mxCell>
        <mxCell id="7bwA_UZl1lktJwLHYLpA-203" value="&lt;span style=&quot;font-size: 20px; font-weight: 700;&quot;&gt;Generated_At&lt;/span&gt;" style="rounded=0;html=1;strokeColor=default;align=center;verticalAlign=middle;fontFamily=Helvetica;fontSize=12;fontColor=default;fontStyle=0;fillColor=default;whiteSpace=wrap;" parent="1" vertex="1">
          <mxGeometry x="1945" y="107" width="200" height="50" as="geometry" />
        </mxCell>
        <mxCell id="7bwA_UZl1lktJwLHYLpA-205" value="&lt;div&gt;&lt;span style=&quot;font-size: 20px; font-weight: 700;&quot;&gt;Used_Status&lt;/span&gt;&lt;/div&gt;" style="rounded=0;html=1;strokeColor=default;align=center;verticalAlign=middle;fontFamily=Helvetica;fontSize=12;fontColor=default;fontStyle=0;fillColor=default;whiteSpace=wrap;" parent="1" vertex="1">
          <mxGeometry x="2145" y="107" width="200" height="50" as="geometry" />
        </mxCell>
        <mxCell id="7bwA_UZl1lktJwLHYLpA-206" value="" style="rounded=0;whiteSpace=wrap;html=1;" parent="1" vertex="1">
          <mxGeometry x="746" y="537" width="840" height="50" as="geometry" />
        </mxCell>
        <mxCell id="7bwA_UZl1lktJwLHYLpA-207" value="" style="rounded=0;whiteSpace=wrap;html=1;" parent="1" vertex="1">
          <mxGeometry x="746" y="265" width="1000" height="50" as="geometry" />
        </mxCell>
        <mxCell id="7bwA_UZl1lktJwLHYLpA-209" value="&lt;span style=&quot;font-size: 20px; font-weight: 700;&quot;&gt;Is_Discount_Used&lt;/span&gt;" style="rounded=0;html=1;strokeColor=default;align=center;verticalAlign=middle;fontFamily=Helvetica;fontSize=12;fontColor=default;fontStyle=0;fillColor=default;whiteSpace=wrap;" parent="1" vertex="1">
          <mxGeometry x="1186" y="537" width="200" height="50" as="geometry" />
        </mxCell>
        <mxCell id="7bwA_UZl1lktJwLHYLpA-210" value="&lt;span style=&quot;font-size: 20px; font-weight: 700;&quot;&gt;Transaction_Date&lt;/span&gt;" style="rounded=0;html=1;strokeColor=default;align=center;verticalAlign=middle;fontFamily=Helvetica;fontSize=12;fontColor=default;fontStyle=0;fillColor=default;whiteSpace=wrap;" parent="1" vertex="1">
          <mxGeometry x="946" y="265" width="200" height="50" as="geometry" />
        </mxCell>
        <mxCell id="7bwA_UZl1lktJwLHYLpA-211" value="&lt;span style=&quot;font-size: 20px; font-weight: 700;&quot;&gt;Transaction_ID&lt;/span&gt;" style="rounded=0;html=1;strokeColor=default;align=center;verticalAlign=middle;fontFamily=Helvetica;fontSize=12;fontStyle=4;fillColor=#ffe6cc;whiteSpace=wrap;" parent="1" vertex="1">
          <mxGeometry x="746" y="265" width="200" height="50" as="geometry" />
        </mxCell>
        <mxCell id="7bwA_UZl1lktJwLHYLpA-212" value="&lt;span style=&quot;font-size: 20px; font-weight: 700;&quot;&gt;Applied_On_Order_ID&lt;/span&gt;" style="rounded=0;html=1;align=center;verticalAlign=middle;fontFamily=Helvetica;fontSize=12;fontStyle=0;whiteSpace=wrap;fillColor=#e1d5e7;strokeColor=default;" parent="1" vertex="1">
          <mxGeometry x="946" y="537" width="240" height="50" as="geometry" />
        </mxCell>
        <mxCell id="7bwA_UZl1lktJwLHYLpA-213" value="&lt;span style=&quot;font-size: 20px; font-weight: 700;&quot;&gt;Customer_ID&lt;/span&gt;" style="rounded=0;html=1;align=center;verticalAlign=middle;fontFamily=Helvetica;fontSize=12;fontStyle=0;whiteSpace=wrap;fillColor=#e1d5e7;strokeColor=default;" parent="1" vertex="1">
          <mxGeometry x="746" y="537" width="200" height="50" as="geometry" />
        </mxCell>
        <mxCell id="7bwA_UZl1lktJwLHYLpA-214" value="&lt;span style=&quot;font-size: 20px; font-weight: 700;&quot;&gt;Discount_Amount&lt;/span&gt;" style="rounded=0;html=1;strokeColor=default;align=center;verticalAlign=middle;fontFamily=Helvetica;fontSize=12;fontColor=default;fontStyle=0;fillColor=default;whiteSpace=wrap;" parent="1" vertex="1">
          <mxGeometry x="1386" y="537" width="200" height="50" as="geometry" />
        </mxCell>
        <mxCell id="7bwA_UZl1lktJwLHYLpA-215" value="&lt;span style=&quot;font-size: 20px; font-weight: 700;&quot;&gt;Amount_Used&lt;/span&gt;" style="rounded=0;html=1;strokeColor=default;align=center;verticalAlign=middle;fontFamily=Helvetica;fontSize=12;fontColor=default;fontStyle=0;fillColor=default;whiteSpace=wrap;" parent="1" vertex="1">
          <mxGeometry x="1146" y="265" width="200" height="50" as="geometry" />
        </mxCell>
        <mxCell id="7bwA_UZl1lktJwLHYLpA-220" value="&lt;span style=&quot;font-size: 20px; font-weight: 700;&quot;&gt;Rider_ID&lt;/span&gt;" style="rounded=0;html=1;align=center;verticalAlign=middle;fontFamily=Helvetica;fontSize=12;fontStyle=0;whiteSpace=wrap;fillColor=#e1d5e7;strokeColor=default;" parent="1" vertex="1">
          <mxGeometry x="1816" y="666" width="200" height="50" as="geometry" />
        </mxCell>
        <mxCell id="7bwA_UZl1lktJwLHYLpA-222" value="" style="rounded=0;whiteSpace=wrap;html=1;" parent="1" vertex="1">
          <mxGeometry x="746" y="-485" width="1600" height="50" as="geometry" />
        </mxCell>
        <mxCell id="7bwA_UZl1lktJwLHYLpA-223" value="&lt;span style=&quot;font-size: 20px; font-weight: 700;&quot;&gt;Product_Name&lt;/span&gt;" style="rounded=0;html=1;strokeColor=default;align=center;verticalAlign=middle;fontFamily=Helvetica;fontSize=12;fontColor=default;fontStyle=0;fillColor=default;whiteSpace=wrap;" parent="1" vertex="1">
          <mxGeometry x="946" y="-485" width="200" height="50" as="geometry" />
        </mxCell>
        <mxCell id="7bwA_UZl1lktJwLHYLpA-224" value="&lt;u style=&quot;font-size: 20px; font-weight: 700;&quot;&gt;Product_ID&lt;/u&gt;" style="rounded=0;html=1;strokeColor=default;align=center;verticalAlign=middle;fontFamily=Helvetica;fontSize=12;fontStyle=4;fillColor=#ffe6cc;whiteSpace=wrap;" parent="1" vertex="1">
          <mxGeometry x="746" y="-485" width="200" height="50" as="geometry" />
        </mxCell>
        <mxCell id="7bwA_UZl1lktJwLHYLpA-225" value="&lt;span style=&quot;font-size: 20px; font-weight: 700;&quot;&gt;Category_ID&lt;/span&gt;" style="rounded=0;html=1;align=center;verticalAlign=middle;fontFamily=Helvetica;fontSize=12;fontStyle=0;whiteSpace=wrap;fillColor=#e1d5e7;strokeColor=default;" parent="1" vertex="1">
          <mxGeometry x="2146" y="-485" width="200" height="50" as="geometry" />
        </mxCell>
        <mxCell id="7bwA_UZl1lktJwLHYLpA-226" value="&lt;span style=&quot;font-size: 20px; font-weight: 700;&quot;&gt;Product_Price&lt;/span&gt;" style="rounded=0;html=1;strokeColor=default;align=center;verticalAlign=middle;fontFamily=Helvetica;fontSize=12;fontColor=default;fontStyle=0;fillColor=default;whiteSpace=wrap;" parent="1" vertex="1">
          <mxGeometry x="1146" y="-485" width="200" height="50" as="geometry" />
        </mxCell>
        <mxCell id="7bwA_UZl1lktJwLHYLpA-227" value="&lt;span style=&quot;font-size: 20px; font-weight: 700;&quot;&gt;Description&lt;/span&gt;" style="rounded=0;html=1;strokeColor=default;align=center;verticalAlign=middle;fontFamily=Helvetica;fontSize=12;fontColor=default;fontStyle=0;fillColor=default;whiteSpace=wrap;" parent="1" vertex="1">
          <mxGeometry x="1346" y="-485" width="200" height="50" as="geometry" />
        </mxCell>
        <mxCell id="7bwA_UZl1lktJwLHYLpA-228" value="&lt;span style=&quot;font-size: 20px; font-weight: 700;&quot;&gt;Image&lt;/span&gt;" style="rounded=0;html=1;strokeColor=default;align=center;verticalAlign=middle;fontFamily=Helvetica;fontSize=12;fontColor=default;fontStyle=0;fillColor=default;whiteSpace=wrap;" parent="1" vertex="1">
          <mxGeometry x="1546" y="-485" width="200" height="50" as="geometry" />
        </mxCell>
        <mxCell id="7bwA_UZl1lktJwLHYLpA-229" value="&lt;span style=&quot;font-size: 20px; font-weight: 700;&quot;&gt;Stock_Quantity&lt;/span&gt;" style="rounded=0;html=1;strokeColor=default;align=center;verticalAlign=middle;fontFamily=Helvetica;fontSize=12;fontColor=default;fontStyle=0;fillColor=default;whiteSpace=wrap;" parent="1" vertex="1">
          <mxGeometry x="1746" y="-485" width="200" height="50" as="geometry" />
        </mxCell>
        <mxCell id="7bwA_UZl1lktJwLHYLpA-230" value="&lt;span style=&quot;font-size: 20px; font-weight: 700;&quot;&gt;Is_Active&lt;/span&gt;" style="rounded=0;html=1;strokeColor=default;align=center;verticalAlign=middle;fontFamily=Helvetica;fontSize=12;fontColor=default;fontStyle=0;fillColor=default;whiteSpace=wrap;" parent="1" vertex="1">
          <mxGeometry x="1946" y="-485" width="200" height="50" as="geometry" />
        </mxCell>
        <mxCell id="7bwA_UZl1lktJwLHYLpA-231" value="&lt;span style=&quot;font-size: 20px; font-weight: 700;&quot;&gt;Quantity&lt;/span&gt;" style="rounded=0;html=1;strokeColor=default;align=center;verticalAlign=middle;fontFamily=Helvetica;fontSize=12;fontColor=default;fontStyle=0;fillColor=default;whiteSpace=wrap;" parent="1" vertex="1">
          <mxGeometry x="946" y="-193" width="200" height="50" as="geometry" />
        </mxCell>
        <mxCell id="7bwA_UZl1lktJwLHYLpA-232" value="&lt;u style=&quot;font-size: 20px; font-weight: 700;&quot;&gt;Order_ID&lt;/u&gt;" style="rounded=0;html=1;strokeColor=default;align=center;verticalAlign=middle;fontFamily=Helvetica;fontSize=12;fontStyle=4;fillColor=#ffe6cc;whiteSpace=wrap;" parent="1" vertex="1">
          <mxGeometry x="-797" y="672" width="200" height="50" as="geometry" />
        </mxCell>
        <mxCell id="7bwA_UZl1lktJwLHYLpA-233" value="&lt;span style=&quot;font-size: 20px; font-weight: 700;&quot;&gt;Cart_ID&lt;/span&gt;" style="rounded=0;html=1;align=center;verticalAlign=middle;fontFamily=Helvetica;fontSize=12;fontStyle=0;whiteSpace=wrap;fillColor=#e1d5e7;strokeColor=default;" parent="1" vertex="1">
          <mxGeometry x="1146" y="-193" width="200" height="50" as="geometry" />
        </mxCell>
        <mxCell id="7bwA_UZl1lktJwLHYLpA-234" value="&lt;span style=&quot;font-size: 20px; font-weight: 700;&quot;&gt;Product_ID&lt;/span&gt;" style="rounded=0;html=1;align=center;verticalAlign=middle;fontFamily=Helvetica;fontSize=12;fontStyle=0;whiteSpace=wrap;fillColor=#e1d5e7;strokeColor=default;" parent="1" vertex="1">
          <mxGeometry x="1346" y="-193" width="200" height="50" as="geometry" />
        </mxCell>
        <mxCell id="7bwA_UZl1lktJwLHYLpA-235" value="&lt;u style=&quot;font-size: 20px; font-weight: 700;&quot;&gt;Cart_Item_ID&lt;/u&gt;" style="rounded=0;html=1;strokeColor=default;align=center;verticalAlign=middle;fontFamily=Helvetica;fontSize=12;fontStyle=4;fillColor=#ffe6cc;whiteSpace=wrap;" parent="1" vertex="1">
          <mxGeometry x="746" y="-193" width="200" height="50" as="geometry" />
        </mxCell>
        <mxCell id="7bwA_UZl1lktJwLHYLpA-237" value="&lt;span style=&quot;font-size: 20px; font-weight: 700;&quot;&gt;Status&lt;/span&gt;" style="rounded=0;html=1;strokeColor=default;align=center;verticalAlign=middle;fontFamily=Helvetica;fontSize=12;fontColor=default;fontStyle=0;fillColor=default;whiteSpace=wrap;" parent="1" vertex="1">
          <mxGeometry x="-197" y="672" width="200" height="50" as="geometry" />
        </mxCell>
        <mxCell id="7bwA_UZl1lktJwLHYLpA-238" value="&lt;span style=&quot;font-size: 20px; font-weight: 700;&quot;&gt;Email&lt;/span&gt;" style="rounded=0;html=1;strokeColor=default;align=center;verticalAlign=middle;fontFamily=Helvetica;fontSize=12;fontColor=default;fontStyle=0;fillColor=default;whiteSpace=wrap;" parent="1" vertex="1">
          <mxGeometry x="3" y="672" width="200" height="50" as="geometry" />
        </mxCell>
        <mxCell id="7bwA_UZl1lktJwLHYLpA-240" value="" style="rounded=0;whiteSpace=wrap;html=1;" parent="1" vertex="1">
          <mxGeometry x="750" y="-44" width="400" height="50" as="geometry" />
        </mxCell>
        <mxCell id="7bwA_UZl1lktJwLHYLpA-241" value="&lt;span style=&quot;font-size: 20px; font-weight: 700;&quot;&gt;Cart_ID&lt;/span&gt;" style="rounded=0;html=1;strokeColor=default;align=center;verticalAlign=middle;fontFamily=Helvetica;fontSize=12;fontStyle=4;fillColor=#ffe6cc;whiteSpace=wrap;" parent="1" vertex="1">
          <mxGeometry x="750" y="-44" width="200" height="50" as="geometry" />
        </mxCell>
        <mxCell id="7bwA_UZl1lktJwLHYLpA-243" value="&lt;span style=&quot;font-size: 20px; font-weight: 700;&quot;&gt;Customer_ID&lt;/span&gt;" style="rounded=0;html=1;align=center;verticalAlign=middle;fontFamily=Helvetica;fontSize=12;fontStyle=0;whiteSpace=wrap;fillColor=#e1d5e7;strokeColor=default;" parent="1" vertex="1">
          <mxGeometry x="950" y="-44" width="200" height="50" as="geometry" />
        </mxCell>
        <mxCell id="7bwA_UZl1lktJwLHYLpA-245" value="&lt;span style=&quot;font-size: 20px; font-weight: 700;&quot;&gt;Gift_card_ID&lt;/span&gt;" style="rounded=0;html=1;align=center;verticalAlign=middle;fontFamily=Helvetica;fontSize=12;fontStyle=0;whiteSpace=wrap;fillColor=#e1d5e7;strokeColor=default;" parent="1" vertex="1">
          <mxGeometry x="1546" y="265" width="200" height="50" as="geometry" />
        </mxCell>
        <mxCell id="7bwA_UZl1lktJwLHYLpA-248" value="&lt;span style=&quot;font-size: 20px; font-weight: 700;&quot;&gt;Order_ID&lt;/span&gt;" style="rounded=0;html=1;align=center;verticalAlign=middle;fontFamily=Helvetica;fontSize=12;fontStyle=0;whiteSpace=wrap;fillColor=#e1d5e7;strokeColor=default;" parent="1" vertex="1">
          <mxGeometry x="1346" y="265" width="200" height="50" as="geometry" />
        </mxCell>
        <mxCell id="7bwA_UZl1lktJwLHYLpA-257" value="" style="rounded=0;whiteSpace=wrap;html=1;" parent="1" vertex="1">
          <mxGeometry x="746" y="403" width="1000" height="50" as="geometry" />
        </mxCell>
        <mxCell id="7bwA_UZl1lktJwLHYLpA-258" value="&lt;span style=&quot;font-size: 20px; font-weight: 700;&quot;&gt;Payment_Method&lt;/span&gt;" style="rounded=0;html=1;strokeColor=default;align=center;verticalAlign=middle;fontFamily=Helvetica;fontSize=12;fontColor=default;fontStyle=0;fillColor=default;whiteSpace=wrap;" parent="1" vertex="1">
          <mxGeometry x="946" y="403" width="200" height="50" as="geometry" />
        </mxCell>
        <mxCell id="7bwA_UZl1lktJwLHYLpA-259" value="&lt;span style=&quot;font-size: 20px; font-weight: 700;&quot;&gt;Transaction_ID&lt;/span&gt;" style="rounded=0;html=1;align=center;verticalAlign=middle;fontFamily=Helvetica;fontSize=12;fontStyle=0;whiteSpace=wrap;fillColor=#e1d5e7;strokeColor=default;" parent="1" vertex="1">
          <mxGeometry x="1346" y="403" width="200" height="51" as="geometry" />
        </mxCell>
        <mxCell id="7bwA_UZl1lktJwLHYLpA-260" value="&lt;span style=&quot;font-size: 20px; font-weight: 700;&quot;&gt;Order_ID&lt;/span&gt;" style="rounded=0;html=1;align=center;verticalAlign=middle;fontFamily=Helvetica;fontSize=12;fontStyle=0;whiteSpace=wrap;fillColor=#e1d5e7;strokeColor=default;" parent="1" vertex="1">
          <mxGeometry x="1546" y="403" width="200" height="50" as="geometry" />
        </mxCell>
        <mxCell id="7bwA_UZl1lktJwLHYLpA-261" value="&lt;span style=&quot;font-size: 20px; font-weight: 700;&quot;&gt;Amount_Paid&lt;/span&gt;" style="rounded=0;html=1;strokeColor=default;align=center;verticalAlign=middle;fontFamily=Helvetica;fontSize=12;fontColor=default;fontStyle=0;fillColor=default;whiteSpace=wrap;" parent="1" vertex="1">
          <mxGeometry x="1146" y="403" width="200" height="50" as="geometry" />
        </mxCell>
        <mxCell id="7bwA_UZl1lktJwLHYLpA-262" value="&lt;span style=&quot;font-size: 20px;&quot;&gt;&lt;font face=&quot;Helvetica&quot;&gt;Payment_ID&lt;/font&gt;&lt;/span&gt;" style="rounded=0;html=1;strokeColor=default;align=center;verticalAlign=middle;fontFamily=Helvetica;fontSize=12;fontStyle=5;fillColor=#ffe6cc;whiteSpace=wrap;" parent="1" vertex="1">
          <mxGeometry x="746" y="403" width="200" height="50" as="geometry" />
        </mxCell>
        <mxCell id="7bwA_UZl1lktJwLHYLpA-266" value="&lt;span style=&quot;font-size: 20px; font-weight: 700;&quot;&gt;Primary Key&lt;/span&gt;" style="rounded=0;html=1;strokeColor=default;align=center;verticalAlign=middle;fontFamily=Helvetica;fontSize=12;fontStyle=4;fillColor=#ffe6cc;whiteSpace=wrap;" parent="1" vertex="1">
          <mxGeometry x="975" y="-657" width="200" height="50" as="geometry" />
        </mxCell>
        <mxCell id="7bwA_UZl1lktJwLHYLpA-267" value="&lt;span style=&quot;font-size: 20px; font-weight: 700;&quot;&gt;Foreign Key&lt;/span&gt;" style="rounded=0;html=1;align=center;verticalAlign=middle;fontFamily=Helvetica;fontSize=12;fontStyle=0;whiteSpace=wrap;fillColor=#e1d5e7;strokeColor=default;" parent="1" vertex="1">
          <mxGeometry x="1396" y="-657" width="200" height="50" as="geometry" />
        </mxCell>
        <mxCell id="7bwA_UZl1lktJwLHYLpA-308" value="&lt;u style=&quot;font-size: 20px; font-weight: 700;&quot;&gt;Rider_ID&lt;/u&gt;" style="rounded=0;html=1;align=center;verticalAlign=middle;fontFamily=Helvetica;fontSize=12;fontStyle=0;whiteSpace=wrap;fillColor=#e1d5e7;strokeColor=default;" parent="1" vertex="1">
          <mxGeometry x="-792" y="516" width="200" height="50" as="geometry" />
        </mxCell>
        <mxCell id="7bwA_UZl1lktJwLHYLpA-381" style="edgeStyle=none;shape=connector;rounded=0;orthogonalLoop=1;jettySize=auto;html=1;entryX=0.5;entryY=1;entryDx=0;entryDy=0;strokeColor=default;strokeWidth=3;align=center;verticalAlign=middle;fontFamily=Helvetica;fontSize=12;fontColor=default;fontStyle=0;labelBackgroundColor=default;endArrow=none;" parent="1" edge="1">
          <mxGeometry relative="1" as="geometry">
            <mxPoint x="-423" y="106.00000000000045" as="sourcePoint" />
            <mxPoint x="-423" y="106.00000000000045" as="targetPoint" />
          </mxGeometry>
        </mxCell>
        <mxCell id="7bwA_UZl1lktJwLHYLpA-400" value="" style="endArrow=classic;html=1;rounded=0;strokeColor=default;strokeWidth=3;align=center;verticalAlign=middle;fontFamily=Helvetica;fontSize=12;fontColor=default;fontStyle=0;labelBackgroundColor=default;" parent="1" edge="1">
          <mxGeometry width="50" height="50" relative="1" as="geometry">
            <mxPoint x="-662" y="-428" as="sourcePoint" />
            <mxPoint x="-662" y="-428" as="targetPoint" />
          </mxGeometry>
        </mxCell>
        <mxCell id="7bwA_UZl1lktJwLHYLpA-402" value="" style="endArrow=classic;html=1;rounded=0;strokeColor=default;strokeWidth=3;align=center;verticalAlign=middle;fontFamily=Helvetica;fontSize=12;fontColor=default;fontStyle=0;labelBackgroundColor=default;" parent="1" edge="1">
          <mxGeometry width="50" height="50" relative="1" as="geometry">
            <mxPoint x="-742" y="-408" as="sourcePoint" />
            <mxPoint x="-742" y="-408" as="targetPoint" />
          </mxGeometry>
        </mxCell>
        <mxCell id="7bwA_UZl1lktJwLHYLpA-414" value="&lt;h1&gt;&lt;span style=&quot;font-family: gadugi; text-wrap-mode: wrap;&quot;&gt;3.Customer_Address&lt;/span&gt;&lt;/h1&gt;" style="text;html=1;align=center;verticalAlign=middle;resizable=0;points=[];autosize=1;strokeColor=none;fillColor=none;fontFamily=Helvetica;fontSize=15;fontColor=light-dark(#FB4828,#EDEDED);fontStyle=1;labelBackgroundColor=none;" parent="1" vertex="1">
          <mxGeometry x="-384" y="-241" width="304" height="91" as="geometry" />
        </mxCell>
        <mxCell id="7bwA_UZl1lktJwLHYLpA-415" value="&lt;h1&gt;&lt;span style=&quot;font-family: gadugi; text-wrap-mode: wrap;&quot;&gt;6.Rider&lt;/span&gt;&lt;/h1&gt;" style="text;html=1;align=center;verticalAlign=middle;resizable=0;points=[];autosize=1;strokeColor=none;fillColor=none;fontFamily=Helvetica;fontSize=15;fontColor=#FB4828;fontStyle=1;labelBackgroundColor=none;" parent="1" vertex="1">
          <mxGeometry x="-234.5" y="252" width="118" height="91" as="geometry" />
        </mxCell>
        <mxCell id="7bwA_UZl1lktJwLHYLpA-416" value="&lt;h1&gt;&lt;span style=&quot;font-family: gadugi; text-wrap-mode: wrap;&quot;&gt;7.Rider_Preferred_Area&lt;/span&gt;&lt;/h1&gt;" style="text;html=1;align=center;verticalAlign=middle;resizable=0;points=[];autosize=1;strokeColor=none;fillColor=none;fontFamily=Helvetica;fontSize=15;fontColor=#FB4828;fontStyle=1;labelBackgroundColor=none;" parent="1" vertex="1">
          <mxGeometry x="-676.5" y="429.5" width="342" height="91" as="geometry" />
        </mxCell>
        <mxCell id="7bwA_UZl1lktJwLHYLpA-418" value="&lt;h1&gt;&lt;span style=&quot;font-family: gadugi; text-wrap-mode: wrap;&quot;&gt;&lt;font&gt;10.Category&lt;/font&gt;&lt;/span&gt;&lt;/h1&gt;" style="text;html=1;align=center;verticalAlign=middle;resizable=0;points=[];autosize=1;strokeColor=none;fillColor=none;fontFamily=Helvetica;fontSize=16;fontColor=#FB4828;fontStyle=1;labelBackgroundColor=none;" parent="1" vertex="1">
          <mxGeometry x="839" y="-416" width="200" height="95" as="geometry" />
        </mxCell>
        <mxCell id="7bwA_UZl1lktJwLHYLpA-420" value="&lt;h1&gt;&lt;span style=&quot;font-family: gadugi; text-wrap-mode: wrap;&quot;&gt;11.Cart_Item&lt;/span&gt;&lt;/h1&gt;" style="text;html=1;align=center;verticalAlign=middle;resizable=0;points=[];autosize=1;strokeColor=none;fillColor=none;fontFamily=Helvetica;fontSize=15;fontColor=#FB4828;fontStyle=1;labelBackgroundColor=none;" parent="1" vertex="1">
          <mxGeometry x="996" y="-273" width="196" height="91" as="geometry" />
        </mxCell>
        <mxCell id="7bwA_UZl1lktJwLHYLpA-421" value="&lt;h1&gt;&lt;span style=&quot;font-family: gadugi; text-wrap-mode: wrap;&quot;&gt;15.Payment&lt;/span&gt;&lt;/h1&gt;" style="text;html=1;align=center;verticalAlign=middle;resizable=0;points=[];autosize=1;strokeColor=none;fillColor=none;fontFamily=Helvetica;fontSize=15;fontColor=#FB4828;fontStyle=1;labelBackgroundColor=none;" parent="1" vertex="1">
          <mxGeometry x="1004" y="331" width="185" height="91" as="geometry" />
        </mxCell>
        <mxCell id="7bwA_UZl1lktJwLHYLpA-422" value="&lt;h1&gt;&lt;span style=&quot;font-family: gadugi; text-wrap-mode: wrap;&quot;&gt;14.Gift_Card_Transaction&lt;/span&gt;&lt;/h1&gt;" style="text;html=1;align=center;verticalAlign=middle;resizable=0;points=[];autosize=1;strokeColor=none;fillColor=none;fontFamily=Helvetica;fontSize=15;fontColor=#FB4828;fontStyle=1;labelBackgroundColor=none;" parent="1" vertex="1">
          <mxGeometry x="972" y="169" width="368" height="91" as="geometry" />
        </mxCell>
        <mxCell id="7bwA_UZl1lktJwLHYLpA-423" value="&lt;h1&gt;&lt;span style=&quot;font-family: gadugi; text-wrap-mode: wrap;&quot;&gt;16.First_Order_Discount&lt;/span&gt;&lt;/h1&gt;" style="text;html=1;align=center;verticalAlign=middle;resizable=0;points=[];autosize=1;strokeColor=none;fillColor=none;fontFamily=Helvetica;fontSize=15;fontColor=#FB4828;fontStyle=1;labelBackgroundColor=none;" parent="1" vertex="1">
          <mxGeometry x="983" y="458" width="352" height="91" as="geometry" />
        </mxCell>
        <mxCell id="7bwA_UZl1lktJwLHYLpA-424" value="&lt;h1&gt;&lt;span style=&quot;font-family: gadugi; text-wrap-mode: wrap;&quot;&gt;17.Delivery&lt;/span&gt;&lt;/h1&gt;" style="text;html=1;align=center;verticalAlign=middle;resizable=0;points=[];autosize=1;strokeColor=none;fillColor=none;fontFamily=Helvetica;fontSize=15;fontColor=#FB4828;fontStyle=1;labelBackgroundColor=none;" parent="1" vertex="1">
          <mxGeometry x="1350" y="587" width="177" height="91" as="geometry" />
        </mxCell>
        <mxCell id="7bwA_UZl1lktJwLHYLpA-425" value="&lt;h1&gt;&lt;span style=&quot;font-family: gadugi; text-wrap-mode: wrap;&quot;&gt;12.Cart&lt;/span&gt;&lt;/h1&gt;" style="text;html=1;align=center;verticalAlign=middle;resizable=0;points=[];autosize=1;strokeColor=none;fillColor=none;fontFamily=Helvetica;fontSize=15;fontColor=#FB4828;fontStyle=1;labelBackgroundColor=none;" parent="1" vertex="1">
          <mxGeometry x="890.5" y="-118" width="119" height="91" as="geometry" />
        </mxCell>
        <mxCell id="7bwA_UZl1lktJwLHYLpA-426" value="&lt;h1&gt;&lt;span style=&quot;font-family: gadugi; text-wrap-mode: wrap;&quot;&gt;8.Order&lt;/span&gt;&lt;/h1&gt;" style="text;html=1;align=center;verticalAlign=middle;resizable=0;points=[];autosize=1;strokeColor=none;fillColor=none;fontFamily=Helvetica;fontSize=15;fontColor=#FB4828;fontStyle=1;labelBackgroundColor=none;" parent="1" vertex="1">
          <mxGeometry x="-245" y="592" width="125" height="91" as="geometry" />
        </mxCell>
        <mxCell id="7bwA_UZl1lktJwLHYLpA-427" value="&lt;h1&gt;&lt;span style=&quot;font-family: gadugi; text-wrap-mode: wrap;&quot;&gt;13.Gift_Card&lt;/span&gt;&lt;/h1&gt;" style="text;html=1;align=center;verticalAlign=middle;resizable=0;points=[];autosize=1;strokeColor=none;fillColor=none;fontFamily=Helvetica;fontSize=15;fontColor=#FB4828;fontStyle=1;labelBackgroundColor=none;" parent="1" vertex="1">
          <mxGeometry x="1479" y="27" width="192" height="91" as="geometry" />
        </mxCell>
        <mxCell id="7bwA_UZl1lktJwLHYLpA-428" value="&lt;h1&gt;&lt;span style=&quot;font-family: gadugi; text-wrap-mode: wrap;&quot;&gt;9.Product&lt;/span&gt;&lt;/h1&gt;" style="text;html=1;align=center;verticalAlign=middle;resizable=0;points=[];autosize=1;strokeColor=none;fillColor=none;fontFamily=Helvetica;fontSize=15;fontColor=#FB4828;fontStyle=1;labelBackgroundColor=none;" parent="1" vertex="1">
          <mxGeometry x="1382" y="-573" width="155" height="91" as="geometry" />
        </mxCell>
        <mxCell id="7bwA_UZl1lktJwLHYLpA-429" value="&lt;h1&gt;&lt;span style=&quot;font-family: gadugi; text-wrap-mode: wrap;&quot;&gt;4.Admin&lt;/span&gt;&lt;/h1&gt;" style="text;html=1;align=center;verticalAlign=middle;resizable=0;points=[];autosize=1;strokeColor=none;fillColor=none;fontFamily=Helvetica;fontSize=15;fontColor=#FB4828;fontStyle=1;labelBackgroundColor=none;" parent="1" vertex="1">
          <mxGeometry x="-381" y="-70" width="137" height="91" as="geometry" />
        </mxCell>
        <mxCell id="7bwA_UZl1lktJwLHYLpA-430" value="&lt;h1&gt;&lt;span style=&quot;font-family: gadugi; text-wrap-mode: wrap;&quot;&gt;1.User&lt;/span&gt;&lt;/h1&gt;" style="text;html=1;align=left;verticalAlign=middle;resizable=0;points=[];autosize=1;strokeColor=none;fillColor=none;fontFamily=Helvetica;fontSize=15;fontColor=#FB4828;fontStyle=1;labelBackgroundColor=none;" parent="1" vertex="1">
          <mxGeometry x="-429.5" y="-566" width="106" height="91" as="geometry" />
        </mxCell>
        <mxCell id="7bwA_UZl1lktJwLHYLpA-431" value="&lt;h1&gt;&lt;span style=&quot;font-family: gadugi; text-wrap-mode: wrap;&quot;&gt;2.Customer&lt;/span&gt;&lt;/h1&gt;" style="text;html=1;align=left;verticalAlign=middle;resizable=0;points=[];autosize=1;strokeColor=none;fillColor=none;fontFamily=Helvetica;fontSize=15;fontColor=#FB4828;fontStyle=1;labelBackgroundColor=none;" parent="1" vertex="1">
          <mxGeometry x="-406" y="-402" width="179" height="91" as="geometry" />
        </mxCell>
        <mxCell id="7bwA_UZl1lktJwLHYLpA-433" value="&lt;h1&gt;&lt;span style=&quot;font-family: gadugi; text-wrap-mode: wrap;&quot;&gt;&lt;font&gt;5.Product_Audit&lt;/font&gt;&lt;/span&gt;&lt;/h1&gt;" style="text;html=1;align=center;verticalAlign=middle;resizable=0;points=[];autosize=1;strokeColor=none;fillColor=none;fontFamily=Helvetica;fontSize=16;fontColor=#FB4828;fontStyle=1;labelBackgroundColor=none;" parent="1" vertex="1">
          <mxGeometry x="-350" y="79" width="261" height="95" as="geometry" />
        </mxCell>
        <mxCell id="7bwA_UZl1lktJwLHYLpA-436" value="Database Table Structure for &lt;font face=&quot;Li Sirajee Sylheti Unicode&quot;&gt;চা খাবেন?&lt;/font&gt;" style="text;html=1;align=center;verticalAlign=middle;resizable=0;points=[];autosize=1;strokeColor=none;fillColor=none;fontFamily=gadugi;fontSize=39;fontColor=light-dark(#f74a4a, #ededed);fontStyle=1;labelBackgroundColor=none;" parent="1" vertex="1">
          <mxGeometry x="-790" y="-667" width="707" height="60" as="geometry" />
        </mxCell>
      </root>
    </mxGraphModel>
  </diagram>
</mxfile>
